<?xml version="1.0" encoding="utf-8"?>
<!-- Generator: Adobe Illustrator 22.1.0, SVG Export Plug-In . SVG Version: 6.00 Build 0)  -->
<svg version="1.1" id="Layer_1" xmlns="http://www.w3.org/2000/svg" xmlns:xlink="http://www.w3.org/1999/xlink" x="0px" y="0px"
	 viewBox="0 0 32 32" style="enable-background:new 0 0 32 32;" xml:space="preserve">
<style type="text/css">
	.st0{fill:#3F3B20;}
	.st1{fill:#FFFFFF;}
	.st2{fill:#FFFBE3;}
</style>
<g>
	<path class="st0" d="M26,31H6c-2.8,0-5-2.3-5-5V6c0-2.8,2.3-5,5-5h20c2.8,0,5,2.3,5,5v20C31,28.8,28.8,31,26,31z"/>
</g>
<path class="st1" d="M77.9,0.6c-4.8-0.3-8.8-3.8-12-7.1c-3.2-3.3-5.9-7.2-7-11.6c0-0.1-0.1-0.1-0.1-0.1c-0.1-0.1-0.3-0.1-0.4,0.1
	c-1.3,4.3-3.9,8.2-7.2,11.2c-1.8,1.6-3.7,3-5.8,4.3c-2,1.2-4.2,2.6-6.4,3.4c-0.5,0.2-0.2,0.9,0.3,0.6c0,0,0.1,0,0.1-0.1
	c3.2,1.4,6.3,2.9,9.1,5.1c2.8,2.2,5.3,4.9,7.1,8c1.1,1.8,1.9,3.7,2.6,5.6c0.2,0.6,1.1,0.3,0.9-0.3c0,0,0-0.1,0-0.1
	c2.3-8.9,9.8-16.6,18.8-18.5c0,0,0,0,0.1,0C78.4,1.3,78.4,0.7,77.9,0.6z"/>
<path class="st1" d="M93.5-10.4c-2.3-0.1-4.2-1.8-5.7-3.4c-1.5-1.5-2.8-3.4-3.3-5.5c0,0,0,0,0-0.1c-0.1,0-0.2,0-0.2,0.1
	c-0.6,2.1-1.8,3.9-3.4,5.3c-0.8,0.8-1.8,1.4-2.7,2c-0.9,0.6-2,1.2-3,1.6c-0.2,0.1-0.1,0.4,0.1,0.3c0,0,0,0,0.1,0
	c1.5,0.7,3,1.4,4.3,2.4c1.3,1.1,2.5,2.3,3.4,3.8c0.5,0.8,0.9,1.7,1.2,2.7c0.1,0.3,0.5,0.2,0.4-0.1c0,0,0,0,0,0
	c1.1-4.2,4.6-7.9,8.9-8.8c0,0,0,0,0,0C93.7-10,93.7-10.3,93.5-10.4z"/>
<path class="st1" d="M22.3,16.4c-1.8-0.1-3.3-1.4-4.5-2.7c-1.2-1.2-2.2-2.7-2.7-4.4c0,0,0,0,0,0c0,0-0.1,0-0.1,0
	c-0.5,1.6-1.5,3.1-2.7,4.2c-0.7,0.6-1.4,1.1-2.2,1.6c-0.8,0.5-1.6,1-2.4,1.3c-0.2,0.1-0.1,0.3,0.1,0.2c0,0,0,0,0,0
	c1.2,0.5,2.4,1.1,3.4,1.9c1.1,0.8,2,1.9,2.7,3c0.4,0.7,0.7,1.4,1,2.1c0.1,0.2,0.4,0.1,0.3-0.1c0,0,0,0,0,0c0.8-3.3,3.7-6.2,7.1-7
	c0,0,0,0,0,0C22.5,16.7,22.5,16.4,22.3,16.4z"/>
<path class="st1" d="M63.3,32.4c-1.8-0.1-3.3-1.4-4.5-2.7c-1.2-1.2-2.2-2.7-2.7-4.4c0,0,0,0,0,0c0,0-0.1,0-0.1,0
	c-0.5,1.6-1.5,3.1-2.7,4.2c-0.7,0.6-1.4,1.1-2.2,1.6c-0.8,0.5-1.6,1-2.4,1.3c-0.2,0.1-0.1,0.3,0.1,0.2c0,0,0,0,0,0
	c1.2,0.5,2.4,1.1,3.4,1.9c1.1,0.8,2,1.9,2.7,3c0.4,0.7,0.7,1.4,1,2.1c0.1,0.2,0.4,0.1,0.3-0.1c0,0,0,0,0,0c0.8-3.3,3.7-6.2,7.1-7
	c0,0,0,0,0,0C63.5,32.7,63.5,32.4,63.3,32.4z"/>
<path class="st1" d="M54.9,39.3c-1.2-0.1-2.3-1-3.1-1.8c-0.8-0.8-1.5-1.8-1.8-3c0,0,0,0,0,0c0,0-0.1,0-0.1,0c-0.3,1.1-1,2.1-1.9,2.9
	c-0.5,0.4-1,0.8-1.5,1.1c-0.5,0.3-1.1,0.7-1.6,0.9c-0.1,0,0,0.2,0.1,0.2c0,0,0,0,0,0c0.8,0.4,1.6,0.7,2.3,1.3
	c0.7,0.6,1.4,1.3,1.8,2.1c0.3,0.5,0.5,0.9,0.7,1.4c0.1,0.1,0.3,0.1,0.2-0.1c0,0,0,0,0,0c0.6-2.3,2.5-4.3,4.8-4.8c0,0,0,0,0,0
	C55,39.5,55,39.3,54.9,39.3z"/>
<path class="st2" d="M14.8,26.3c-0.6,0-1.1-0.5-1.5-0.9c-0.4-0.4-0.8-0.9-0.9-1.5c0,0,0,0,0,0c0,0,0,0-0.1,0
	c-0.2,0.6-0.5,1.1-0.9,1.4c-0.2,0.2-0.5,0.4-0.7,0.6c-0.3,0.2-0.5,0.3-0.8,0.4c-0.1,0,0,0.1,0,0.1c0,0,0,0,0,0
	c0.4,0.2,0.8,0.4,1.2,0.7c0.4,0.3,0.7,0.6,0.9,1c0.1,0.2,0.2,0.5,0.3,0.7c0,0.1,0.1,0,0.1,0c0,0,0,0,0,0
	C12.6,27.6,13.6,26.7,14.8,26.3C14.8,26.4,14.8,26.4,14.8,26.3C14.8,26.4,14.8,26.3,14.8,26.3z"/>
<path class="st2" d="M8.8,20.3c-0.6,0-1.1-0.5-1.5-0.9c-0.4-0.4-0.8-0.9-0.9-1.5c0,0,0,0,0,0c0,0,0,0-0.1,0
	c-0.2,0.6-0.5,1.1-0.9,1.4c-0.2,0.2-0.5,0.4-0.7,0.6c-0.3,0.2-0.5,0.3-0.8,0.4c-0.1,0,0,0.1,0,0.1c0,0,0,0,0,0
	c0.4,0.2,0.8,0.4,1.2,0.7c0.4,0.3,0.7,0.6,0.9,1c0.1,0.2,0.2,0.5,0.3,0.7c0,0.1,0.1,0,0.1,0c0,0,0,0,0,0C6.6,21.6,7.6,20.7,8.8,20.3
	C8.8,20.4,8.8,20.4,8.8,20.3C8.8,20.4,8.8,20.3,8.8,20.3z"/>
<g>
	<path class="st1" d="M28,20.4c-0.9-0.1-1.9-0.2-2.8-0.2c-0.9,0-1.9,0-2.8-0.1c-0.3,0-0.6,0-1,0c0.7-0.3,1.4-0.6,2-0.9
		c0.1,0,0-0.2-0.1-0.2c-0.5,0.2-1.1,0.4-1.6,0.6c0.7-0.7,1.4-1.3,2.1-2c0.8-0.7,1.5-1.5,2.2-2.3c0.1-0.1,0-0.2-0.1-0.1
		c-0.7,0.6-1.4,1.2-2.1,1.8c-0.7,0.6-1.4,1.3-2,1.9c-0.3,0.3-0.5,0.5-0.8,0.8c0,0,0,0,0,0c0.3-0.7,0.6-1.3,0.9-2c0,0,0-0.1,0-0.1
		c0,0,0-0.1,0-0.1c0,0,0,0,0,0c-0.1,0-0.1,0-0.1,0.1c-0.2,0.6-0.4,1.1-0.7,1.7c0-1,0-2,0-3c0-1.1,0-2.1,0-3.2c0-0.1-0.2-0.1-0.2,0
		c-0.1,0.9-0.2,1.9-0.2,2.8c0,0.9,0,1.9-0.1,2.8c0,0.2,0,0.3,0,0.5c-0.2-0.5-0.4-1-0.6-1.5c0-0.1-0.2,0-0.1,0
		c0.2,0.6,0.4,1.2,0.7,1.8c-0.8-0.8-1.6-1.5-2.4-2.3c-0.8-0.7-1.6-1.4-2.4-2.1c-0.1-0.1-0.2,0.1-0.1,0.1c1.5,1.5,2.9,2.9,4.4,4.4
		c-0.7-0.3-1.3-0.6-2-0.8c-0.1,0-0.1,0.1,0,0.1c0.7,0.4,1.4,0.7,2,1c-1.1,0-2.2,0-3.3,0.1c-1.1,0-2.1,0.1-3.2,0.2
		c-0.1,0-0.1,0.2,0,0.2c2,0,4.1,0,6.1,0c-0.6,0.3-1.3,0.6-1.9,0.9c-0.1,0,0,0.1,0,0.1c0.8-0.3,1.5-0.6,2.3-0.9
		c-0.8,0.8-1.6,1.6-2.3,2.4c-0.7,0.8-1.4,1.6-2.1,2.4c-0.1,0.1,0.1,0.2,0.1,0.1c1.5-1.5,2.9-2.9,4.4-4.4c-0.3,0.7-0.5,1.3-0.8,2
		c0,0.1,0.1,0.2,0.2,0c0.3-0.8,0.6-1.5,0.9-2.3c0,1.2,0,2.3,0.1,3.5c0,1.1,0.1,2.1,0.2,3.2c0,0.1,0.2,0.1,0.2,0c0-2.2,0-4.4,0-6.6
		c0.2,0.6,0.5,1.2,0.7,1.9c0.1,0.1,0.3,0.1,0.2-0.1c-0.2-0.6-0.5-1.2-0.7-1.8c0.8,0.8,1.6,1.6,2.3,2.4c0.7,0.8,1.5,1.5,2.3,2.2
		c0.1,0.1,0.2,0,0.1-0.1c-0.6-0.7-1.2-1.4-1.8-2.1c-0.6-0.7-1.3-1.4-1.9-2c-0.1-0.1-0.3-0.3-0.4-0.4c0.6,0.3,1.2,0.6,1.8,0.8
		c0.1,0.1,0.3-0.1,0.1-0.2c-0.7-0.3-1.3-0.6-2-1c1.1,0,2.2,0,3.2,0c1.1,0,2.1,0,3.2,0C28.2,20.6,28.2,20.5,28,20.4z"/>
	<path class="st1" d="M19.2,16c-0.3-0.6-0.5-1.1-0.8-1.7c0,0,0,0,0,0c0.2,0.6,0.4,1.1,0.6,1.7C19,16.2,19.2,16.1,19.2,16z"/>
	<path class="st1" d="M19.5,17c0,0,0.1,0,0.1,0c0,0,0-0.1,0-0.1c-0.1-0.1-0.1-0.2-0.2-0.3c0,0-0.1,0-0.1,0c0,0,0,0.1,0,0.1
		C19.4,16.8,19.4,16.9,19.5,17z"/>
	<path class="st1" d="M22,17.1c0,0,0.1,0,0.1-0.1c0-0.1,0-0.1,0.1-0.2c0-0.1,0-0.1,0.1-0.2c0-0.1,0.1-0.3,0.2-0.4c0,0,0,0,0,0
		c-0.1,0.1-0.1,0.2-0.2,0.4c0,0.1-0.1,0.1-0.1,0.2c0,0.1-0.1,0.1-0.1,0.2C22,17,22,17.1,22,17.1z"/>
	<path class="st1" d="M22.9,15.5c0.2-0.3,0.3-0.6,0.5-1c0-0.1-0.1-0.2-0.2-0.1c-0.2,0.3-0.3,0.6-0.5,0.9c0,0,0,0.1,0,0.1
		C22.8,15.5,22.9,15.5,22.9,15.5z"/>
	<path class="st1" d="M19.1,24.6c-0.2,0.5-0.4,0.9-0.5,1.4c-0.1,0.1,0.2,0.2,0.2,0.1c0.1-0.5,0.3-0.9,0.5-1.4
		C19.3,24.5,19.2,24.5,19.1,24.6z"/>
	<path class="st1" d="M19.6,23.7C19.6,23.7,19.6,23.7,19.6,23.7c-0.1,0-0.1,0-0.2,0c0,0.1-0.1,0.2-0.1,0.3c0,0,0,0,0,0c0,0,0,0,0,0
		c0,0,0,0.1,0.1,0.1c0,0,0.1,0,0.1,0c0,0,0.1,0,0.1-0.1c0-0.1,0.1-0.2,0.1-0.3c0,0,0,0,0,0C19.7,23.8,19.7,23.8,19.6,23.7
		C19.7,23.8,19.6,23.7,19.6,23.7z"/>
	<path class="st1" d="M22.2,23.7C22.2,23.7,22.2,23.6,22.2,23.7c-0.1-0.1-0.1-0.1-0.2,0c0,0,0,0-0.1,0.1c0,0,0,0,0,0c0,0,0,0,0,0.1
		c0.1,0.1,0.1,0.2,0.2,0.3c0,0,0,0,0.1,0.1c0,0,0.1,0,0.1,0c0,0,0,0,0.1-0.1c0,0,0-0.1,0-0.1C22.3,23.9,22.2,23.8,22.2,23.7z"/>
	<path class="st1" d="M22.6,24.8c-0.1-0.1-0.3,0-0.2,0.1c0.2,0.5,0.4,0.9,0.7,1.3c0,0.1,0.1,0.1,0.2,0c0.1,0,0.1-0.1,0-0.2
		C23.1,25.7,22.8,25.3,22.6,24.8z"/>
	<path class="st1" d="M24.5,22c-0.1-0.1-0.2,0.1-0.1,0.1c0.4,0.2,0.7,0.5,1.1,0.7c0.1,0.1,0.2-0.1,0.1-0.2
		C25.3,22.5,24.9,22.2,24.5,22z"/>
	<path class="st1" d="M26.5,23.1c-0.1,0-0.1-0.1-0.2-0.1c0,0,0,0-0.1,0c0,0,0,0-0.1,0c0,0,0,0,0,0c0,0,0,0,0,0c0,0,0,0.1,0,0.1
		c0,0,0,0.1,0.1,0.1c0.1,0,0.1,0.1,0.2,0.1c0,0,0.1,0,0.1,0c0,0,0,0,0,0c0,0,0,0,0,0C26.5,23.2,26.5,23.2,26.5,23.1
		C26.5,23.1,26.5,23.1,26.5,23.1z"/>
	<path class="st1" d="M24.1,18.9c-0.1,0.1,0,0.2,0.1,0.2c0.2-0.1,0.4-0.2,0.7-0.3c0.2-0.1,0.5-0.1,0.7-0.2c0.1,0,0.1-0.2,0-0.2
		C25,18.5,24.6,18.7,24.1,18.9z"/>
	<path class="st1" d="M26.5,18C26.5,18,26.5,18,26.5,18C26.6,18,26.6,18,26.5,18c0.1,0,0.2-0.1,0.2-0.1c0,0,0,0,0,0c0,0,0,0,0,0
		c0,0,0,0,0,0c0,0,0,0,0,0c0,0,0,0-0.1-0.1c0,0,0,0,0,0c0,0,0,0-0.1,0c-0.1,0-0.1,0.1-0.2,0.1c0,0,0,0,0,0c0,0,0,0,0,0
		C26.4,17.9,26.4,17.9,26.5,18C26.4,17.9,26.4,18,26.5,18C26.5,18,26.5,18,26.5,18z"/>
	<path class="st1" d="M16.2,22.4c0.2-0.1,0.5-0.2,0.7-0.2c0.1,0,0.1-0.1,0.1-0.1c0-0.1-0.1-0.1-0.1-0.1c-0.3,0.1-0.5,0.2-0.7,0.4
		C16,22.4,16.1,22.4,16.2,22.4z"/>
	<path class="st1" d="M15.6,22.5c-0.2,0.1-0.3,0.2-0.5,0.4c-0.2,0.1-0.3,0.2-0.5,0.3c-0.1,0,0,0.1,0,0.1c0.2-0.1,0.4-0.1,0.6-0.2
		c0.2-0.1,0.4-0.2,0.5-0.3C15.8,22.6,15.7,22.4,15.6,22.5z"/>
	<path class="st1" d="M17.7,18.9c0-0.1,0-0.1,0-0.2c-0.3-0.1-0.5-0.2-0.8-0.3c0,0-0.1,0-0.1,0c0,0,0,0.1,0,0.1
		c0.3,0.1,0.5,0.2,0.7,0.4C17.6,18.9,17.6,18.9,17.7,18.9z"/>
	<path class="st1" d="M15.9,18.1c0.1,0,0.1,0,0.1,0c0-0.1,0-0.1-0.1-0.1c0,0,0,0,0,0c0,0,0,0,0,0c0,0,0,0-0.1,0c0,0-0.1,0-0.1-0.1
		c-0.1,0-0.2-0.1-0.2-0.1c0,0-0.1,0-0.1,0c0,0,0,0.1,0,0.1C15.6,17.9,15.8,18,15.9,18.1z"/>
</g>
<g>
	<path class="st1" d="M11.5,5.1c0,1.5-0.1,3.1-0.2,4.6c0,0.4,0.6,0.4,0.7,0c0.1-1.5,0.1-3.1,0-4.6C12,4.8,11.5,4.8,11.5,5.1z"/>
	<path class="st1" d="M11.2,12.2c0,0.5-0.1,1.1-0.1,1.6c0,0.2,0,0.5,0,0.7c0,0.3,0.1,0.5,0.1,0.8c0.1,1,0.1,2.1,0.1,3.1
		c0,0.4,0.5,0.4,0.6,0c0-1,0-2.1,0.1-3.1c0-0.3,0.1-0.5,0.1-0.8c0-0.2,0-0.5,0-0.7c0-0.5,0-1.1-0.1-1.6C12,11.6,11.2,11.6,11.2,12.2
		z"/>
	<path class="st1" d="M9.7,9.8c-1.6,0-3.1,0-4.7,0.1c-0.2,0-0.2,0.3,0,0.4c1.6,0.1,3.1,0.3,4.7,0.3C10.1,10.6,10.1,9.8,9.7,9.8z"/>
	<path class="st1" d="M17.7,10.5c-0.7-0.2-1.5-0.2-2.2-0.2c-0.7-0.1-1.5-0.1-2.2-0.2c-0.5-0.1-0.5,0.8,0,0.8c0.7,0,1.5,0.1,2.2,0.1
		c0.7,0,1.5,0.1,2.2,0C17.9,10.9,17.9,10.5,17.7,10.5z"/>
	<path class="st1" d="M9.2,8.1c0.1,0.2,0.2,0.5,0.3,0.6c0.2,0.2,0.5,0,0.5-0.2c0-0.2-0.2-0.5-0.3-0.7C9.7,7.6,9.6,7.4,9.5,7.2
		C9.3,6.8,9.1,6.4,8.9,6C8.8,5.8,8.3,6,8.5,6.2C8.6,6.6,8.8,7.1,9,7.5C9,7.7,9.1,7.9,9.2,8.1z"/>
	<path class="st1" d="M13.6,8.6c0.2-0.4,0.4-0.8,0.7-1.1c0.2-0.4,0.4-0.7,0.7-1.1c0.1-0.1-0.1-0.2-0.2-0.1c-0.3,0.3-0.7,0.6-0.9,0.9
		c-0.3,0.4-0.6,0.7-0.8,1.1c-0.1,0.1,0,0.4,0.1,0.5C13.3,8.8,13.5,8.7,13.6,8.6z"/>
	<path class="st1" d="M9.7,11.8c-0.4,0.3-0.8,0.6-1.1,1c-0.3,0.4-0.5,0.8-0.7,1.2c-0.1,0.1,0.1,0.3,0.2,0.2c0.3-0.3,0.6-0.7,0.9-1
		c0.2-0.1,0.3-0.3,0.5-0.4c0.1-0.1,0.2-0.2,0.3-0.2c0,0,0.1-0.1,0.1-0.1c0,0,0,0,0,0c0,0,0,0,0,0c0,0,0.1,0,0.1-0.1
		c0.1-0.1,0.2-0.3,0.1-0.5C10.1,11.8,9.9,11.7,9.7,11.8z"/>
	<path class="st1" d="M14.4,13.1c-0.3-0.4-0.7-0.8-1.1-1.2c-0.2-0.2-0.4-0.2-0.6,0c-0.2,0.2-0.2,0.4,0,0.6c0.4,0.4,0.7,0.7,1.1,1.1
		c0.3,0.4,0.7,0.8,1,1.1c0.2,0.3,0.7-0.1,0.5-0.4C15,13.9,14.7,13.5,14.4,13.1z"/>
</g>
<path class="st1" d="M28.4,9.2c-0.8,0-1.6,0-2.5,0c-0.8,0-1.5,0-2.3,0c0,0,0,0-0.1,0c0,0,0,0,0,0c0,0,0,0,0,0
	c-0.2-0.1-0.3-0.2-0.4-0.4c0-0.1-0.1-0.3,0-0.5c0.4-0.4,0.7-0.8,1.1-1.3c0.6-0.7,1.2-1.3,1.8-2C26,5,25.9,4.9,25.9,5
	c-1,1-2,2.1-3,3.1c-0.2,0.1-0.4,0.1-0.6,0C22.2,8,22.1,7.9,22,7.7c0-0.5,0-1,0-1.4c0-0.9,0-1.7,0-2.6c0-0.1-0.2-0.1-0.2,0
	c0,1.3-0.1,2.6-0.1,4c-0.1,0.3-0.3,0.5-0.5,0.6c-0.2,0.1-0.4,0.1-0.5,0c0,0,0,0,0,0c-0.3-0.3-0.6-0.6-0.9-0.8
	c-0.7-0.6-1.3-1.2-2-1.8c-0.1-0.1-0.2,0-0.1,0.1c1,0.9,2,1.8,2.9,2.8c0,0.2,0,0.4-0.1,0.6c0,0,0,0.1-0.1,0.1c0,0,0,0,0,0
	c0,0-0.1,0.1-0.1,0.1c0,0-0.1,0-0.1,0.1c-0.5,0-1,0-1.5,0.1c-0.9,0-1.8,0.1-2.8,0.1c-0.1,0-0.1,0.1,0,0.1c1.4,0,2.9,0,4.3-0.1
	c0.2,0,0.3,0.2,0.4,0.3c0,0,0,0.1,0,0.1c0.1,0.3,0,0.6-0.1,0.9c-0.3,0.4-0.7,0.8-1,1.2c-0.6,0.7-1.1,1.4-1.7,2.1
	c-0.1,0.1,0.1,0.2,0.1,0.1c0.9-1.1,1.8-2.1,2.7-3.2c0,0,0,0,0.1,0c0-0.1,0.1-0.1,0.1-0.2c0.1,0,0.1-0.1,0.2-0.1c0.2,0,0.3,0,0.4,0.1
	c0.1,0.1,0.2,0.3,0.3,0.4c0,0,0,0.1,0,0.1c0,0.5,0,0.9,0,1.4c0,0.9,0.1,1.7,0.1,2.6c0,0.2,0.3,0.2,0.3,0c0-1.3,0-2.7-0.1-4
	c0-0.2,0.1-0.4,0.2-0.5c0.1-0.1,0.1-0.1,0.2-0.2c0.1-0.1,0.2-0.1,0.3-0.1c0.1,0,0.1,0,0.2,0c0.5,0.5,1,0.9,1.5,1.4
	c0.6,0.6,1.3,1.2,1.9,1.9c0.1,0.1,0.2-0.1,0.1-0.1c-1.1-1.1-2.2-2.2-3.2-3.3c-0.1-0.2-0.1-0.5,0-0.7c0.1-0.1,0.1-0.2,0.2-0.3
	c0,0,0.1-0.1,0.1-0.1c0.7,0,1.4-0.1,2-0.1c0.9,0,1.9,0,2.8-0.1C28.5,9.3,28.5,9.2,28.4,9.2z M22.9,8.6C22.9,8.6,22.9,8.6,22.9,8.6
	C22.9,8.6,22.9,8.6,22.9,8.6C22.9,8.6,22.9,8.6,22.9,8.6z M22.9,8.5C22.9,8.5,22.9,8.5,22.9,8.5C22.9,8.5,22.9,8.5,22.9,8.5
	C22.9,8.5,22.9,8.5,22.9,8.5z"/>
</svg>
