<?xml version="1.0" encoding="utf-8"?>
<!-- Generator: Adobe Illustrator 22.1.0, SVG Export Plug-In . SVG Version: 6.00 Build 0)  -->
<svg version="1.1" id="Layer_1" xmlns="http://www.w3.org/2000/svg" xmlns:xlink="http://www.w3.org/1999/xlink" x="0px" y="0px"
	 viewBox="0 0 241 92" style="enable-background:new 0 0 241 92;" xml:space="preserve">
<style type="text/css">
	.st0{enable-background:new    ;}
	.st1{fill:#3F3B20;}
</style>
<g class="st0">
	<path class="st1" d="M40.2,69h-5.4c-2.4,0-4.1-0.5-5.1-1.7c-1.7,1-4,1.7-7.6,1.7C7.7,69,0.8,64.4,0.8,56.3
		c0-9.1,10.5-13.1,22.3-13.1c1.9,0,3.7,0.2,5.6,0.9v-2.8c0-6-3.2-7.4-7-7.4c-3.6,0-7.3,2.1-7.9,7l-7.1-2.2c3.4-4.8,9.3-6.4,15.1-6.4
		c8.7,0,15.7,3.3,15.7,9v21.4C37.5,68.6,40.2,69,40.2,69z M28.9,65.3c-0.2-0.8-0.2-1.6-0.2-2.5V46.4c-1.3-0.5-3.1-0.9-5.2-0.9
		c-5.6,0-13.7,2.6-13.7,10.3c0,7.6,4.1,10.8,13.6,10.8C25.6,66.6,27.4,66.1,28.9,65.3z"/>
	<path class="st1" d="M68.2,61.8l5.8,2.5c-3.7,3.4-7.1,5.2-14.2,5.2c-10.6,0-18.1-8.3-18.1-18.8c0-10.6,6.4-19.6,18.1-19.6
		c9.1,0,13.3,3.7,16.8,8.8l-7,1.9c-1.6-5.3-3.3-9.3-9.8-9.3c-6.5,0-9.1,8.2-9.1,17.7c0,9.6,2,17,9.1,17
		C64.9,67.2,66.2,65.3,68.2,61.8z"/>
	<path class="st1" d="M117,50.7c0,10.6-6.9,19.1-20.3,19.1c-13.3,0-20.1-8.5-20.1-19.1c0-10.6,7.1-19.2,20.1-19.2
		C109.7,31.5,117,40.1,117,50.7z M108.1,50.3c0-9.5-3.1-17.3-11.4-17.3c-8.3,0-11.2,7.8-11.2,17.3c0,9.6,1.7,17.5,11.2,17.5
		C106.2,67.8,108.1,59.9,108.1,50.3z"/>
	<path class="st1" d="M148.6,58.9c0,8.3-7,10.1-16.4,10.1c-5.5,0-11.9-1.8-14.4-4.4l4.9-6c0.6,3.2,3.1,8.3,9.8,8.3
		c4.7,0,7.3-3.8,7.3-7.1c0-5.5-6.4-8.7-10.6-10c-6.2-2.1-9.3-4.9-9.3-9.1c0-6.9,6.9-8.5,12.5-8.5c6.1,0,11.3,1.6,14.6,3.2l-3.2,4.8
		c-0.3-1.5-5.2-6.2-11.4-6.2c-4,0-5.4,2.9-5.4,5.1c0,2.7,1.2,4.1,7.6,6.5C141.3,48.2,148.6,50.6,148.6,58.9z"/>
	<path class="st1" d="M166,33.5h-5.5c0,6.3,0,16.3,0,24.4c0,10,5,8,5,8c-0.6,1.2-2.3,3.1-5.3,3.1c-6.7,0-8.5-4.3-8.5-11
		c0-10.3,0-21.4,0-21.4c0-0.8,0-2.1-0.5-3h-3.4v-1.3c6,0,10-2,12.7-4.7c0,0,0,1.8,0,4.7h5.5V33.5z"/>
	<path class="st1" d="M205.5,69h-5.4c-2.4,0-4.1-0.5-5.1-1.7c-1.7,1-4,1.7-7.6,1.7C173,69,166,64.4,166,56.3
		c0-9.1,10.5-13.1,22.3-13.1c1.9,0,3.7,0.2,5.6,0.9v-2.8c0-6-3.2-7.4-7-7.4c-3.6,0-7.3,2.1-7.9,7l-7.1-2.2c3.5-4.8,9.3-6.4,15.1-6.4
		c8.7,0,15.7,3.3,15.7,9v21.4C202.8,68.6,205.5,69,205.5,69z M194.2,65.3c-0.2-0.8-0.2-1.6-0.2-2.5V46.4c-1.3-0.5-3.1-0.9-5.2-0.9
		c-5.6,0-13.7,2.6-13.7,10.3c0,7.6,4.1,10.8,13.6,10.8C190.9,66.6,192.7,66.1,194.2,65.3z"/>
	<path class="st1" d="M231.3,43.6c0,0,0.8-9.1-6.3-9.1c-5.1,0-6.4,3.5-6.4,5.2v23.1c0,5.9,2.8,6.3,2.8,6.3H207c0,0,2.7-0.4,2.7-6.4
		V42c0-5.9-2.7-6.4-2.7-6.4l11.5-3.4V35c1.3-1.6,4.2-2.8,7.2-2.8c11.3,0,13.6,6.7,13.6,6.7L231.3,43.6z"/>
</g>
</svg>
