<?xml version="1.0" encoding="utf-8"?>
<!-- Generator: Adobe Illustrator 22.1.0, SVG Export Plug-In . SVG Version: 6.00 Build 0)  -->
<svg version="1.1" id="Layer_1" xmlns="http://www.w3.org/2000/svg" xmlns:xlink="http://www.w3.org/1999/xlink" x="0px" y="0px"
	 viewBox="0 0 258 74" style="enable-background:new 0 0 258 74;" xml:space="preserve">
<style type="text/css">
	.st0{enable-background:new    ;}
	.st1{fill:#3F3B20;}
</style>
<g class="st0">
	<path class="st1" d="M9.8,21.2v10.3h2.8c9.5,0,10.6-2.1,10.6-2.1v5.7c0,0-1.1-2.1-10.6-2.1H9.8v18c0,4.7,2.3,5,2.3,5H0.6
		c0,0,2.2-0.3,2.2-5.1V21.1c0-4.7-2.2-5.1-2.2-5.1h29.6l-0.1,7.7c0,0-1.6-5.9-14.6-5.9h-5.1C10.1,18.5,9.8,19.6,9.8,21.2z"/>
	<path class="st1" d="M57.7,41.4c0,8.5-5.5,15.3-16.3,15.3c-10.7,0-16.1-6.8-16.1-15.3c0-8.5,5.7-15.4,16.1-15.4
		C51.9,26,57.7,32.9,57.7,41.4z M50.6,41c0-7.6-2.5-13.9-9.1-13.9c-6.7,0-8.9,6.2-8.9,13.9c0,7.7,1.4,14,8.9,14
		C49.1,55,50.6,48.7,50.6,41z"/>
	<path class="st1" d="M101.5,47.9c0,6.7-5.6,8.1-13.1,8.1c-2.9,0-6.1-0.6-8.5-1.6c-2.3,1.3-5.6,1.6-9.5,1.6c-4.4,0-9.5-1.4-11.5-3.5
		l3.9-4.8c0.5,2.6,2.5,6.6,7.9,6.6c3.7,0,5.9-3.1,5.9-5.7c0-4.4-5.2-7-8.5-8c-5-1.7-7.4-3.9-7.4-7.3c0-5.5,5.5-6.8,10-6.8
		c4.1,0,7.7,1,10.3,2c2-1.5,5-2,7.7-2c4.9,0,9.1,1.3,11.7,2.6l-2.6,3.8c-0.3-1.2-4.1-5-9.1-5c-3.2,0-4.3,2.3-4.3,4.1
		c0,2.2,1,3.2,6.1,5.2C95.7,39.3,101.5,41.3,101.5,47.9z M94.4,48.6c0-4.4-5.2-7-8.5-8c-5-1.7-7.5-3.9-7.5-7.3
		c0-0.7,0.1-1.3,0.2-1.8c-1.5-1.6-4.6-3.5-8.2-3.5c-3.2,0-4.3,2.3-4.3,4.1c0,2.2,1,3.2,6.1,5.2c5.5,2.1,11.3,4.1,11.3,10.7
		c0,1.6-0.4,2.8-0.9,3.8c1.3,1.4,3.1,2.5,5.9,2.5C92.3,54.3,94.4,51.2,94.4,48.6z"/>
	<path class="st1" d="M113.3,23.8v2.8h7.4v1.7h-7.4V51c0,4.7,2.3,5,2.3,5H104c0,0,2.2-0.3,2.2-5.1c0,0-0.2-1.5,0-22.6h-3.5v-1.7h3.5
		v-0.4c0.1-7.3,7.4-8.8,10.6-8.8c1.7,0,8.1,0.4,10,4.6l-5.6,2.2c0.1-2.8-1.7-4.9-4.3-4.9C115.6,19.3,113.3,20.4,113.3,23.8z"/>
	<path class="st1" d="M130.1,50.9V23.8c0-4.7-2.2-5-2.2-5l9.2-2.8v35c0,4.7,2.3,5,2.3,5H128C128,56,130.1,55.7,130.1,50.9z"/>
	<path class="st1" d="M172.3,56h-4.3c-1.9,0-3.3-0.4-4.1-1.4c-1.3,0.8-3.2,1.4-6.1,1.4c-11.5,0-17.1-3.7-17.1-10.1
		c0-7.3,8.4-10.5,17.8-10.5c1.5,0,3,0.2,4.5,0.7v-2.2c0-4.8-2.6-5.9-5.6-5.9c-2.9,0-5.9,1.7-6.3,5.6l-5.7-1.7
		c2.8-3.8,7.4-5.2,12.1-5.2c7,0,12.6,2.6,12.6,7.2v17.1C170.1,55.7,172.3,56,172.3,56z M163.2,53.1c-0.1-0.6-0.2-1.3-0.2-2V37.9
		c-1.1-0.4-2.5-0.7-4.2-0.7c-4.5,0-11,2.1-11,8.3c0,6.1,3.3,8.6,10.9,8.6C160.6,54.1,162.1,53.7,163.2,53.1z"/>
	<path class="st1" d="M189.5,50.9l-5.6-8.1l-1.2,1.4V51c0,4.7,2.3,5,2.3,5h-11.5c0,0,2.2-0.3,2.2-5.1V23.8c0-4.7-2.2-5-2.2-5
		l9.2-2.8v24.6l7.8-8.9c4.1-4.7,2.2-5.1,2.2-5.1h7.7c0,0-2.5,0.3-6.8,5.2l-5.7,6.5l8.7,12.7c3.2,4.7,5.7,5,5.7,5h-11.5
		C190.7,56,192.7,55.7,189.5,50.9z"/>
	<path class="st1" d="M207.7,43.6c0.1,5,2.2,11,8.9,11c4.1,0,6.2-1.5,7.8-4.3l4.1,1.4c-2.6,3.1-6.2,4.7-11.9,4.7
		c-11.6,0-16.1-6.6-16.1-15.1c0-8.5,6.6-15.7,16.3-15.7c9.4,0,13.1,4.4,13.3,9.2C230.2,39,223.3,41.5,207.7,43.6z M216.7,26.9
		c-7.6,0-9.1,6.5-9.1,14.1v0.5C232,38.2,225.1,26.9,216.7,26.9z"/>
	<path class="st1" d="M256.6,47.9c0,6.7-5.6,8.1-13.1,8.1c-4.4,0-9.5-1.4-11.5-3.5l3.9-4.8c0.5,2.6,2.5,6.6,7.9,6.6
		c3.7,0,5.9-3.1,5.9-5.7c0-4.4-5.2-7-8.5-8c-5-1.7-7.4-3.9-7.4-7.3c0-5.5,5.5-6.8,10-6.8c4.9,0,9.1,1.3,11.7,2.6l-2.6,3.8
		c-0.2-1.2-4.1-5-9.1-5c-3.2,0-4.3,2.3-4.3,4.1c0,2.2,1,3.2,6.1,5.2C250.8,39.3,256.6,41.3,256.6,47.9z"/>
</g>
</svg>
