<svg xmlns="http://www.w3.org/2000/svg" width="217.105" height="39.747" viewBox="0 0 217.105 39.747">
  <g id="그룹_6" data-name="그룹 6" transform="translate(-609.803 -358.127)">
    <path id="패스_8" data-name="패스 8" d="M644.9,395.195a.256.256,0,0,1-.175.448h-3.9a6.936,6.936,0,0,1-3.9-.864,1.775,1.775,0,0,0-1.739-.2,14.385,14.385,0,0,1-5.911,1.063c-13.12,0-19.473-4.167-19.473-11.546,0-8.268,9.566-11.957,20.292-11.957a16.722,16.722,0,0,1,2.945.242,1.881,1.881,0,0,0,2.179-1.873v-.076c0-5.465-2.938-6.763-6.353-6.763a6.846,6.846,0,0,0-7.124,5.974.322.322,0,0,1-.41.269l-.175-.053a3.312,3.312,0,0,1-.324-6.217,20.97,20.97,0,0,1,8.1-1.476c7.923,0,14.347,3,14.347,8.2v19.472C643.281,393.155,644.188,394.584,644.9,395.195Zm-10.931-2.283a1.887,1.887,0,0,0,1.282-1.946c-.022-.313-.033-.642-.033-.993V376.407a1.914,1.914,0,0,0-1.492-1.858,14.3,14.3,0,0,0-3.29-.359c-5.124,0-12.5,2.391-12.5,9.428,0,6.97,3.757,9.838,12.434,9.838A11.368,11.368,0,0,0,633.969,392.911Z" transform="translate(0 1.48)" fill="#fff"/>
    <path id="패스_9" data-name="패스 9" d="M754.772,395.077a.325.325,0,0,1-.219.566h-3.731a7.019,7.019,0,0,1-3.857-.838,1.89,1.89,0,0,0-1.821-.206,14.429,14.429,0,0,1-5.867,1.044c-13.12,0-19.473-4.167-19.473-11.546,0-8.268,9.566-11.957,20.292-11.957a16.907,16.907,0,0,1,2.868.228,1.948,1.948,0,0,0,2.256-1.936h0c0-5.465-2.938-6.763-6.353-6.763a6.846,6.846,0,0,0-7.124,5.974.322.322,0,0,1-.41.269h0a3.375,3.375,0,0,1-.329-6.34,21.1,21.1,0,0,1,7.933-1.406c7.923,0,14.347,3,14.347,8.2v19.472C753.281,392.958,754.083,394.408,754.772,395.077Zm-10.856-2.148a1.961,1.961,0,0,0,1.331-2.021c-.019-.3-.029-.607-.029-.936V376.461a1.977,1.977,0,0,0-1.544-1.924,14.4,14.4,0,0,0-3.238-.347c-5.124,0-12.5,2.391-12.5,9.428,0,6.97,3.757,9.838,12.434,9.838A11.42,11.42,0,0,0,743.916,392.929Z" transform="translate(40.297 1.48)" fill="#fff"/>
    <path id="패스_10" data-name="패스 10" d="M662.258,389.8l2.443,1.047a1.228,1.228,0,0,1,.292,2.088,14.539,14.539,0,0,1-5.586,2.782c-12.706,3.22-24.643-8.5-21.82-21.3,1.635-7.418,7.175-13.055,15.956-13.055,7.36,0,11.256,2.709,14.239,6.583a1.235,1.235,0,0,1-.66,1.943l-3.495.939a1.223,1.223,0,0,1-1.483-.792c-1.411-4.289-3.114-7.374-8.6-7.374-5.874,0-8.335,7.448-8.335,16.124,0,8.746,1.843,15.509,8.335,15.509,4.184,0,5.6-1.385,7.184-4A1.228,1.228,0,0,1,662.258,389.8Z" transform="translate(10.025 1.186)" fill="#fff"/>
    <path id="패스_11" data-name="패스 11" d="M697.178,379.155c0,9.634-6.287,17.422-18.515,17.422-12.16,0-18.31-7.788-18.31-17.422s6.492-17.489,18.31-17.489C690.549,361.666,697.178,369.522,697.178,379.155Zm-8.13-.41c0-8.676-2.8-15.783-10.386-15.783s-10.179,7.106-10.179,15.783c0,8.745,1.571,15.988,10.179,15.988C687.34,394.733,689.048,387.49,689.048,378.745Z" transform="translate(18.518 1.297)" fill="#fff"/>
    <path id="패스_12" data-name="패스 12" d="M715.843,386.457c0,7.583-6.423,9.223-14.964,9.223-4.857,0-10.411-1.515-12.837-3.756a.428.428,0,0,1-.029-.583l3.64-4.48a.425.425,0,0,1,.741.148,8.621,8.621,0,0,0,8.761,6.691,6.609,6.609,0,0,0,6.694-6.49c0-5.055-5.875-7.926-9.7-9.154-5.67-1.914-8.471-4.442-8.471-8.268,0-6.287,6.286-7.721,11.342-7.721a31.689,31.689,0,0,1,12.871,2.729.425.425,0,0,1,.169.63l-2.234,3.326a.421.421,0,0,1-.706,0,13.177,13.177,0,0,0-10.1-5.046,4.531,4.531,0,0,0-4.92,4.646c0,2.459,1.094,3.688,6.9,5.944C709.216,376.688,715.843,378.941,715.843,386.457Z" transform="translate(28.615 1.443)" fill="#fff"/>
    <path id="패스_13" data-name="패스 13" d="M724.454,364.807h-2.8a2.186,2.186,0,0,0-2.186,2.186v20.018c0,5,1.364,6.709,2.591,7.237a1.17,1.17,0,0,1,.124,2.033,5.777,5.777,0,0,1-4.215.732,8.13,8.13,0,0,1-6.562-8.1V367.54c0-.184,0-.393-.007-.616a2.191,2.191,0,0,0-2.188-2.116h-1.358v-1.161c5.931,0,5.985-2.6,9.523-5.26a1.318,1.318,0,0,1,2.092,1.068v2a2.187,2.187,0,0,0,2.186,2.188h2.8Z" transform="translate(35.919 0)" fill="#fff"/>
    <path id="패스_14" data-name="패스 14" d="M770.5,371.708a.891.891,0,0,1-1.339-.717c-.128-2.4-1.006-6.845-5.745-6.845-4.647,0-5.877,3.144-5.877,4.715V389.9a8.467,8.467,0,0,0,.925,4.371.894.894,0,0,1-.757,1.368h-8.357a.893.893,0,0,1-.772-1.344,8.955,8.955,0,0,0,.9-4.462V371.047c0-2.694-.614-4.147-1.228-4.924a.889.889,0,0,1,.478-1.383l7.664-2.239a.9.9,0,0,1,1.148.861v1.332c1.163-1.5,3.827-2.528,6.56-2.528,7.956,0,11.037,3.617,12.029,5.271a.889.889,0,0,1-.331,1.23Z" transform="translate(50.653 1.48)" fill="#fff"/>
  </g>
</svg>
