<?xml version="1.0" encoding="utf-8"?>
<!-- Generator: Adobe Illustrator 22.1.0, SVG Export Plug-In . SVG Version: 6.00 Build 0)  -->
<svg version="1.1" id="Layer_1" xmlns="http://www.w3.org/2000/svg" xmlns:xlink="http://www.w3.org/1999/xlink" x="0px" y="0px"
	 viewBox="0 0 130 130" style="enable-background:new 0 0 130 130;" xml:space="preserve">
<style type="text/css">
	.st0{fill:#FFFFFF;}
	.st1{fill:none;stroke:#887F70;}
	.st2{enable-background:new    ;}
	.st3{fill:#887F70;}
	.st4{fill:none;stroke:#887F70;stroke-width:2;stroke-linecap:round;}
</style>
<g id="그룹_65" transform="translate(-1504 -879)">
	<g id="타원_3" transform="translate(1504 879)">
		<circle class="st0" cx="65" cy="65" r="65"/>
		<circle class="st1" cx="65" cy="65" r="64.5"/>
	</g>
	<g id="그룹_64" transform="translate(0 4.364)">
		<g class="st2">
			<path class="st3" d="M1562.5,934l0,3.9c0,0-0.7-2.6-6.1-2.9c-0.1,0.4-0.2,0.9-0.2,1.6v14.9c0,2.5,1.1,2.6,1.1,2.6h-5.8
				c0,0,1.1-0.2,1.1-2.5v-14.9c0-0.7-0.1-1.3-0.2-1.6c-5.3,0.4-6,2.9-6,2.9V934H1562.5z"/>
			<path class="st3" d="M1576.2,946.7c0,4.2-2.8,7.6-8.1,7.6c-5.3,0-8-3.4-8-7.6c0-4.2,2.9-7.7,8-7.7
				C1573.3,939,1576.2,942.5,1576.2,946.7z M1572.7,946.5c0-3.8-1.2-6.9-4.6-6.9c-3.3,0-4.5,3.1-4.5,6.9c0,3.8,0.7,7,4.5,7
				C1571.9,953.5,1572.7,950.3,1572.7,946.5z"/>
			<path class="st3" d="M1592.1,946.8c0,3.3-1.7,7.2-8.5,7.2c-0.9,0-1.6-0.1-2.1-0.3l0,3.1c0,2.3,1.2,2.5,1.2,2.5h-5.8
				c0,0,1.1-0.1,1.1-2.5v-13.5c0-2.4-1.1-2.5-1.1-2.5l4.7-1.5c0,0,0,0,0,0.5c0.8-0.4,1.6-0.5,2.2-0.5
				C1590.2,939.3,1592.1,943.2,1592.1,946.8z M1588.6,946.6c0-3.1-0.8-6.4-4.8-6.4c-0.9,0-1.6,0.2-2.2,0.6c0,1.6,0,5-0.1,12.1
				c0.4,0.2,1,0.2,1.6,0.2C1587.5,953,1588.6,949.7,1588.6,946.6z"/>
		</g>
		<g id="그룹_63" transform="translate(1561.586 923.414) rotate(-45)">
			<line id="선_2" class="st4" x1="2" y1="0" x2="11" y2="0"/>
			<line id="선_3" class="st4" x1="11" y1="9" x2="11" y2="0"/>
		</g>
	</g>
</g>
</svg>
