<svg xmlns="http://www.w3.org/2000/svg" width="68.956" height="68.956" viewBox="0 0 68.956 68.956">
  <g id="그룹_62" data-name="그룹 62" transform="translate(-280.064 -392.304)">
    <path id="패스_21" data-name="패스 21" d="M348.514,426.384c-4.382-.239-8.705-.758-13.1-.784q-6.663-.039-13.325-.114c-.91-.011-1.819-.011-2.728-.021,6.016-2.468,12.037-4.919,18.155-7.129.357-.129.2-.7-.158-.573-6.159,2.225-12.412,4.216-18.537,6.542.6-.607,1.2-1.222,1.809-1.822.83-.817,1.706-1.605,2.464-2.491.862-1.008,1.487-2.18,2.323-3.212a.524.524,0,0,0-.74-.74c-.99.782-2.119,1.355-3.093,2.152-.9.739-1.7,1.6-2.531,2.422-.7.7-1.423,1.376-2.135,2.064,3.344-7.224,6.779-14.4,9.954-21.705.134-.309-.293-.582-.465-.271-3.8,6.892-7.174,13.988-10.483,21.122.013-4.7.022-9.407.056-14.109.018-2.4.133-4.833-.06-7.227-.206-2.564-.433-5.107-.54-7.679a.524.524,0,0,0-1.047,0c-.239,4.382-.758,8.705-.784,13.1q-.037,6.663-.114,13.326c-.008.642-.007,1.284-.015,1.927-2.568-6.35-5.231-12.657-7.9-18.967-.111-.263-.566-.074-.465.2,2.573,6.919,5.158,13.825,7.858,20.692-2.57-2.559-5.252-5.045-8.042-7.317a.722.722,0,0,0-1.02,1.02c1.959,2.47,4.089,4.85,6.283,7.155-5.153-2.479-10.355-4.855-15.507-7.337-.455-.219-.857.449-.4.684,5.189,2.665,10.321,5.44,15.51,8.1q-7.033-.021-14.07.06c-4.97.065-9.94.093-14.906.294a.722.722,0,0,0,0,1.443c9.791.524,19.6.683,29.4.746A190.761,190.761,0,0,0,290.5,438.172c-.476.285-.039,1.036.436.745a143.359,143.359,0,0,1,19.3-9.688c-2.276,2.322-4.488,4.726-6.523,7.224a.722.722,0,0,0,1.021,1.02c2.307-1.83,4.535-3.811,6.7-5.852-3.007,6.686-5.917,13.41-8.817,20.146a.627.627,0,1,0,1.15.485c3.073-7.3,6.309-14.548,9.581-21.768-.02,5.057-.015,10.114.051,15.174.065,4.969.094,9.939.3,14.906a.721.721,0,0,0,1.442,0c.534-9.983.689-19.977.75-29.973,1.151,2.9,2.294,5.809,3.452,8.709,1.672,4.188,3.53,8.3,5.225,12.485.174.431.882.249.709-.2-1.632-4.188-3.1-8.437-4.751-12.616q-1.515-3.83-3.049-7.65c.454.453.917.9,1.368,1.357.816.83,1.6,1.706,2.49,2.463,1.008.862,2.18,1.488,3.212,2.324a.524.524,0,0,0,.74-.74c-.781-.99-1.354-2.12-2.151-3.093-.739-.9-1.6-1.7-2.422-2.532-.166-.167-.326-.34-.492-.508,5.733,2.84,11.437,5.746,17.225,8.47.739.348,1.391-.722.649-1.111-6.55-3.44-13.226-6.644-19.829-9.983,5.116.015,10.231.023,15.345.06,2.4.017,4.833.132,7.227-.06,2.564-.206,5.108-.434,7.679-.54A.524.524,0,0,0,348.514,426.384Z" fill="#fff"/>
    <path id="패스_22" data-name="패스 22" d="M294.894,406.62c1.906,2.349,3.76,4.709,5.82,6.928.361.388,1.051-.125.745-.575a68.248,68.248,0,0,0-5.689-7.042c-2.043-2.281-4.082-4.559-6.195-6.775-.356-.372-.893.179-.56.56C291,401.993,292.99,404.274,294.894,406.62Z" fill="#fff"/>
    <path id="패스_23" data-name="패스 23" d="M335.882,446.321c-2.507-2.487-5.03-4.947-7.425-7.545-.565-.613-1.453.292-.91.91,2.357,2.682,4.778,5.344,7.391,7.779a100.154,100.154,0,0,0,8.145,6.722c.3.222.663-.263.394-.511C340.889,451.29,338.381,448.8,335.882,446.321Z" fill="#fff"/>
    <path id="패스_24" data-name="패스 24" d="M329.691,413.811c2.909-2.513,5.771-5.082,8.619-7.664q2.078-1.884,4.084-3.838a45.116,45.116,0,0,0,4.119-4.259.552.552,0,0,0-.78-.78c-1.473,1.218-2.769,2.681-4.12,4.031s-2.722,2.711-4.086,4.063c-2.73,2.7-5.551,5.307-8.426,7.857C328.7,413.58,329.288,414.16,329.691,413.811Z" fill="#fff"/>
    <path id="패스_25" data-name="패스 25" d="M300.214,440.375c-2.362,2.2-4.529,4.629-6.735,6.986s-4.471,4.676-6.772,6.949c-.333.33.164.815.51.51q3.643-3.21,7.179-6.543a69.438,69.438,0,0,0,6.709-7.012A.63.63,0,0,0,300.214,440.375Z" fill="#fff"/>
  </g>
</svg>
