<svg xmlns="http://www.w3.org/2000/svg" width="64.224" height="57.041" viewBox="0 0 64.224 57.041">
  <g id="그룹_61" data-name="그룹 61" transform="translate(-274.427 -46.317)">
    <path id="패스_15" data-name="패스 15" d="M322.919,71.63c-4.783-.273-8.8-3.814-11.99-7.082a27.008,27.008,0,0,1-7.049-11.59.164.164,0,0,0-.1-.117.253.253,0,0,0-.4.124,25.132,25.132,0,0,1-7.226,11.245,39.854,39.854,0,0,1-5.758,4.308,33.435,33.435,0,0,1-6.392,3.392c-.465.162-.161.859.259.615.043-.025.088-.047.131-.071a39.73,39.73,0,0,1,9.053,5.1,30.233,30.233,0,0,1,7.116,8,31.049,31.049,0,0,1,2.565,5.609c.2.563,1.078.34.908-.25-.008-.027-.018-.054-.026-.081,2.257-8.894,9.787-16.6,18.848-18.522.02,0,.039,0,.058.006C323.362,72.349,323.362,71.656,322.919,71.63Z" fill="#fff"/>
    <path id="패스_16" data-name="패스 16" d="M338.495,60.641c-2.265-.13-4.166-1.807-5.677-3.354A12.778,12.778,0,0,1,329.48,51.8a.075.075,0,0,0-.046-.055.12.12,0,0,0-.189.059,11.891,11.891,0,0,1-3.421,5.323,18.887,18.887,0,0,1-2.726,2.04,15.82,15.82,0,0,1-3.027,1.606c-.219.077-.076.407.123.291.02-.012.042-.022.062-.033a18.815,18.815,0,0,1,4.287,2.415,14.343,14.343,0,0,1,3.369,3.789,14.809,14.809,0,0,1,1.214,2.656c.1.266.51.161.43-.119l-.012-.038a12.175,12.175,0,0,1,8.923-8.769l.028,0C338.7,60.981,338.7,60.653,338.495,60.641Z" fill="#fff"/>
    <path id="패스_17" data-name="패스 17" d="M291.324,53.408c-1.8-.1-3.311-1.436-4.512-2.666a10.158,10.158,0,0,1-2.653-4.361.058.058,0,0,0-.037-.044.1.1,0,0,0-.15.046,9.451,9.451,0,0,1-2.719,4.232,14.951,14.951,0,0,1-2.167,1.621,12.523,12.523,0,0,1-2.406,1.277c-.174.061-.06.323.1.231l.049-.026a14.908,14.908,0,0,1,3.407,1.92,11.374,11.374,0,0,1,2.678,3.011,11.657,11.657,0,0,1,.965,2.111c.076.212.406.128.342-.094l-.01-.03a9.682,9.682,0,0,1,7.093-6.971l.022,0C291.491,53.678,291.491,53.417,291.324,53.408Z" fill="#fff"/>
    <path id="패스_18" data-name="패스 18" d="M326.856,86.3a5.056,5.056,0,0,1-3.077-1.818A6.926,6.926,0,0,1,321.97,81.5a.044.044,0,0,0-.026-.031.065.065,0,0,0-.1.032,6.445,6.445,0,0,1-1.854,2.886A10.274,10.274,0,0,1,318.51,85.5a8.6,8.6,0,0,1-1.641.871c-.119.041-.041.22.067.157l.033-.018a10.212,10.212,0,0,1,2.324,1.31,7.766,7.766,0,0,1,1.826,2.053,7.962,7.962,0,0,1,.658,1.44c.052.145.277.087.234-.064L322,91.226a6.6,6.6,0,0,1,4.837-4.754l.015,0C326.97,86.481,326.97,86.3,326.856,86.3Z" fill="#fff"/>
    <path id="패스_19" data-name="패스 19" d="M316.767,98.327a2.533,2.533,0,0,1-1.539-.909,3.468,3.468,0,0,1-.9-1.487.024.024,0,0,0-.013-.016.033.033,0,0,0-.051.016,3.219,3.219,0,0,1-.928,1.443,5.037,5.037,0,0,1-.738.553,4.248,4.248,0,0,1-.821.435c-.059.021-.02.111.034.079l.016-.009a5.114,5.114,0,0,1,1.162.655,3.649,3.649,0,0,1,1.242,1.747c.026.072.139.043.117-.032l0-.011a3.3,3.3,0,0,1,2.418-2.377h.008C316.824,98.419,316.824,98.33,316.767,98.327Z" fill="#fff"/>
    <path id="패스_20" data-name="패스 20" d="M292.961,93.955c-2.264-.13-4.166-1.806-5.676-3.354a12.778,12.778,0,0,1-3.338-5.487.076.076,0,0,0-.047-.055.119.119,0,0,0-.188.059,11.891,11.891,0,0,1-3.421,5.323,18.888,18.888,0,0,1-2.726,2.04,15.821,15.821,0,0,1-3.027,1.606c-.22.077-.076.407.123.291.02-.012.042-.022.062-.033a18.786,18.786,0,0,1,4.286,2.415,14.308,14.308,0,0,1,3.369,3.789,14.745,14.745,0,0,1,1.215,2.656c.1.266.51.161.43-.119l-.013-.038a12.178,12.178,0,0,1,8.924-8.769l.027,0C293.171,94.295,293.171,93.967,292.961,93.955Z" fill="#fff"/>
  </g>
</svg>
